<svg id="Layer_1" data-name="Layer 1" xmlns="http://www.w3.org/2000/svg" viewBox="0 0 1080 1080"><defs><style>.cls-1{fill:#fff;}.cls-2{fill:#1b231e;fill-rule:evenodd;}</style></defs><title>icon</title><circle class="cls-1" cx="540" cy="540" r="414"/><path class="cls-2" d="M540,1049a221.36,221.36,0,0,1-110.65-29.69L180,875.53A221.39,221.39,0,0,1,69.34,683.92V396.3A221.4,221.4,0,0,1,180,204.48L429.38,60.67a221.07,221.07,0,0,1,221.27,0L900,204.47a221.38,221.38,0,0,1,110.65,191.85V683.91A221.38,221.38,0,0,1,900,875.51L650.61,1019.33A221.29,221.29,0,0,1,540,1049Zm17.25-178V637l57.45-33.51L815.89,720.42l17.24-30.08-201.21-117V506.76l201.21-116.9-17.24-30.08L614.7,476.72l-57.45-33.5v-234H522.8V443.13L508,451.83c-9.06,5.34-13.28,7.78-19.68,11.48l-8,4.65-15.07,8.74L264.17,359.81l-17.25,30L448.18,506.76v66.63l-201.26,117,17.25,30,201.11-116.9L522.8,637V871Z"/><path class="cls-1" d="M540,61a191,191,0,0,1,95.63,25.66L885,230.46A191.37,191.37,0,0,1,980.66,396.3V683.91A191.39,191.39,0,0,1,885,849.54l-249.4,143.8a191,191,0,0,1-191.26,0L195,849.54A191.39,191.39,0,0,1,99.34,683.91V396.3A191.37,191.37,0,0,1,195,230.46l249.4-143.8A191,191,0,0,1,540,61M465.27,442,260.81,323.16l-12,3.19-38.37,66.76c.77,2.67,1.3,4.68,1.87,6.83.42,1.59.85,3.25,1.42,5.29L418.18,524v32.1L213.72,675c-.72,2.52-1.23,4.45-1.76,6.44-.45,1.72-.91,3.48-1.53,5.68l38.37,66.77,12,3.18L465.27,638.2l27.53,16V892l8.89,8.94h76.73l8.83-8.94V654.22l27.48-16L819.19,757l12.12-3.18,38.26-66.77-.37-1.37c-1-3.83-1.71-6.42-2.82-10.75L661.92,556.13V524l204.46-118.8c.9-3.46,1.52-5.82,2.27-8.63l.92-3.49-38.26-66.76-12.12-3.19L614.73,442l-27.48-16V188.19l-8.83-8.93H501.69l-8.89,8.93V426c-8.95,5.28-13,7.64-19.48,11.37L465.27,442M540,1A251.43,251.43,0,0,0,414.39,34.68L165,178.48h0l0,0A251.35,251.35,0,0,0,39.34,396.34V683.91A251.35,251.35,0,0,0,165,901.49h0l249.33,143.77h0a251,251,0,0,0,251.34,0L915,901.51h0a251.38,251.38,0,0,0,125.62-217.57V396.3A251.35,251.35,0,0,0,915,178.51l0,0h0L665.6,34.68A251.4,251.4,0,0,0,540,1ZM478.18,503.88l17.19-10,8-4.63c6.43-3.72,10.68-6.18,19.88-11.6l16.69-9.83,17.08,10,27.48,16L601.92,504v72.2L584.5,586.37l-27.48,16-17,9.9-17-9.93-27.53-16-17.28-10.06v-72.4Z"/></svg>
