<svg width="83" height="24" viewBox="0 0 83 24" fill="none" xmlns="http://www.w3.org/2000/svg">
<path fill-rule="evenodd" clip-rule="evenodd" d="M34.0241 7.93255C32.4914 6.71074 30.5456 5.97656 28.428 5.97656C23.5082 5.97656 19.5059 9.93236 19.5059 14.7949C19.5059 19.6575 23.5082 23.6133 28.428 23.6133C30.5456 23.6133 32.4914 22.8791 34.0241 21.6573V23.638H37.3502V6.12997H34.0241V7.93255ZM28.428 20.3259C25.3431 20.3259 22.8319 17.844 22.8319 14.7949C22.8319 11.7459 25.3431 9.26393 28.428 9.26393C31.5129 9.26393 34.0241 11.7459 34.0241 14.7949C34.0241 17.844 31.5129 20.3259 28.428 20.3259Z" fill="#343434"/>
<path fill-rule="evenodd" clip-rule="evenodd" d="M0 9.26393H7.26745V23.638H10.5935V9.26393H17.7889V5.97656H0V9.26393Z" fill="#343434"/>
<path fill-rule="evenodd" clip-rule="evenodd" d="M53.8562 7.93255C52.3234 6.71074 50.3777 5.97656 48.2601 5.97656C43.3403 5.97656 39.3379 9.93236 39.3379 14.7949V23.638H42.664V14.7949C42.664 11.7459 45.1751 9.26393 48.2601 9.26393C51.345 9.26393 53.8562 11.7459 53.8562 14.7949V23.638H57.1822V6.12997H53.8562V7.93255Z" fill="#343434"/>
<path d="M63.2108 6.125H59.8848V23.633H63.2108V6.125Z" fill="#343434"/>
<path d="M82.5975 6.125H79.2715V23.633H82.5975V6.125Z" fill="#343434"/>
<path fill-rule="evenodd" clip-rule="evenodd" d="M69.1737 6.12997H65.8477V23.638H69.1737V14.7949C69.1737 11.7459 71.6849 9.26393 74.7698 9.26393V5.97656C72.6522 5.97656 70.7065 6.71074 69.1737 7.93255V6.12997Z" fill="#343434"/>
<path d="M61.5422 3.27641C62.4576 3.27641 63.1997 2.54296 63.1997 1.63821C63.1997 0.73345 62.4576 0 61.5422 0C60.6268 0 59.8848 0.73345 59.8848 1.63821C59.8848 2.54296 60.6268 3.27641 61.5422 3.27641Z" fill="#343434"/>
<path d="M80.8294 3.27641C81.7448 3.27641 82.4869 2.54296 82.4869 1.63821C82.4869 0.73345 81.7448 0 80.8294 0C79.914 0 79.1719 0.73345 79.1719 1.63821C79.1719 2.54296 79.914 3.27641 80.8294 3.27641Z" fill="#343434"/>
</svg>
