<svg width="268" height="56" fill="none" xmlns="http://www.w3.org/2000/svg"><path fill-rule="evenodd" clip-rule="evenodd" d="m5.833 9.92 15.253-8.411c3.634-2.012 8.08-2.012 11.667 0l15.253 8.365c3.586 2.012 5.833 5.715 5.833 9.692v16.823c0 4.022-2.2 7.68-5.833 9.691l-15.253 8.411c-3.586 2.012-8.033 2.012-11.667 0L5.833 46.08C2.247 44.069 0 40.366 0 36.389V19.566c0-3.977 2.247-7.68 5.833-9.646Zm38.874 5.623 2.343 3.886c-.048.274-.096.411-.192.685l-12.48 6.949v1.874l12.48 6.949c.048.32.096.457.192.731l-2.343 3.886c-.287.045-.43.091-.718.183l-12.575-6.949c-.528.303-.77.432-1.167.644l-.506.27v13.897l-.526.503h-4.686l-.526-.503V34.651a35.21 35.21 0 0 0-1.168-.643l-.506-.27-12.48 6.948a4.122 4.122 0 0 1-.716-.183L6.79 36.617c.047-.32.095-.457.19-.731l12.48-6.949v-1.874L6.98 20.114a3.303 3.303 0 0 0-.19-.731l2.343-3.886c.286-.046.43-.091.717-.183l12.575 6.949c.528-.303.77-.433 1.167-.644.143-.075.305-.162.507-.27V7.45l.526-.502h4.685l.526.502v13.9c.528.302.771.432 1.168.643l.506.27 12.48-6.902c.286.046.43.091.717.183ZM146.456 20.8c-3.682-3.246-8.511-5.211-13.867-5.211-11.236 0-20.369 8.777-20.369 19.611 0 10.834 9.133 19.611 20.369 19.611 5.356 0 10.185-2.011 13.867-5.211v5.257h6.55V15.634h-6.55V20.8Zm-13.867 27.703c-7.65 0-13.866-5.989-13.866-13.303 0-7.36 6.216-13.303 13.866-13.303 7.651 0 13.867 5.989 13.867 13.303 0 7.314-6.216 13.303-13.867 13.303ZM68.71 15.634v6.309h17.117v32.914h6.55V21.943h17.118v-6.309H68.709Zm116.236 5.257c-3.681-3.2-8.511-5.211-13.866-5.211h-11.523v39.131h6.55V21.943h4.973c7.65 0 13.866 5.988 13.866 13.257v19.657h6.551V15.634h-6.551v5.257Z" fill="#343A40"/><path d="M205.746 15.634h-6.551v39.132h6.551V15.634Zm45.662 0h-6.55v39.132h6.55V15.634Z" fill="#343A40"/><path fill-rule="evenodd" clip-rule="evenodd" d="M213.253 54.857h6.55V21.943h17.118v-6.309h-23.668v39.223ZM202.446 1.143c-2.629 0-4.685 2.011-4.685 4.526 0 2.514 2.103 4.525 4.685 4.525 2.63 0 4.686-2.011 4.686-4.525 0-2.515-2.056-4.526-4.686-4.526Zm45.711 0c-2.63 0-4.686 2.011-4.686 4.526 0 2.514 2.104 4.525 4.686 4.525 2.63 0 4.686-2.011 4.686-4.525 0-2.515-2.104-4.526-4.686-4.526Zm15.109 44.663c-2.63 0-4.686 2.011-4.686 4.525 0 2.515 2.104 4.526 4.686 4.526 2.63 0 4.686-2.011 4.686-4.526.048-2.514-2.056-4.525-4.686-4.525Z" fill="#343A40"/><path d="M52.07 49.234c.574.32 1.004.732 1.339 1.28.334.549.478 1.189.478 1.874 0 .686-.144 1.326-.478 1.83-.335.548-.765.96-1.34 1.28-.573.32-1.194.456-1.912.456-.717 0-1.338-.137-1.912-.457a3.522 3.522 0 0 1-1.339-1.28c-.335-.548-.478-1.143-.478-1.828 0-.686.143-1.326.478-1.875.335-.548.765-1.006 1.339-1.28.574-.32 1.195-.457 1.912-.457.718 0 1.34.137 1.913.457Zm.287 5.303c.574-.548.86-1.28.86-2.148 0-.869-.286-1.6-.86-2.149-.574-.549-1.291-.869-2.2-.869-.908 0-1.673.275-2.2.869-.573.548-.86 1.28-.86 2.148 0 .87.287 1.6.86 2.15.575.548 1.292.868 2.2.868.861 0 1.626-.275 2.2-.869Zm-.86-2.194c-.192.183-.431.32-.718.365l1.147 1.555h-.956l-1.052-1.554h-.43v1.554h-.813v-3.886h1.77c.43 0 .764.091 1.003.32.24.229.383.503.383.869-.048.32-.144.594-.335.777Zm-2.01-.229h.91c.19 0 .334-.045.43-.137.095-.091.191-.228.191-.366a.41.41 0 0 0-.191-.365c-.096-.092-.24-.138-.43-.138h-.91v1.006Z" fill="#343A40"/></svg>