<svg width="122" height="30" viewBox="0 0 122 30" fill="none" xmlns="http://www.w3.org/2000/svg">
<g clip-path="url(#clip0)">
<path d="M2.92416 17.4717C4.53913 17.4717 5.84833 16.1777 5.84833 14.5816C5.84833 12.9854 4.53913 11.6914 2.92416 11.6914C1.30919 11.6914 0 12.9854 0 14.5816C0 16.1777 1.30919 17.4717 2.92416 17.4717Z" fill="#FF445B"/>
<path d="M2.93229 17.8357C4.5442 17.8357 5.85091 16.5442 5.85091 14.9511C5.85091 13.3579 4.5442 12.0664 2.93229 12.0664C1.32038 12.0664 0.0136719 13.3579 0.0136719 14.9511C0.0136719 16.5442 1.32038 17.8357 2.93229 17.8357Z" fill="#FF455C"/>
<path d="M2.94546 18.1865C4.55278 18.1865 5.85577 16.8987 5.85577 15.31C5.85577 13.7214 4.55278 12.4336 2.94546 12.4336C1.33814 12.4336 0.0351562 13.7214 0.0351562 15.31C0.0351562 16.8987 1.33814 18.1865 2.94546 18.1865Z" fill="#FF465D"/>
<path d="M2.97214 18.5427C4.5764 18.5427 5.87691 17.2573 5.87691 15.6717C5.87691 14.0862 4.5764 12.8008 2.97214 12.8008C1.36789 12.8008 0.0673828 14.0862 0.0673828 15.6717C0.0673828 17.2573 1.36789 18.5427 2.97214 18.5427Z" fill="#FE475E"/>
<path d="M3.0068 18.8935C4.60646 18.8935 5.90325 17.6118 5.90325 16.0307C5.90325 14.4497 4.60646 13.168 3.0068 13.168C1.40714 13.168 0.110352 14.4497 0.110352 16.0307C0.110352 17.6118 1.40714 18.8935 3.0068 18.8935Z" fill="#FE485F"/>
<path d="M3.05122 19.2403C4.64629 19.2403 5.93935 17.9623 5.93935 16.3858C5.93935 14.8093 4.64629 13.5312 3.05122 13.5312C1.45615 13.5312 0.163086 14.8093 0.163086 16.3858C0.163086 17.9623 1.45615 19.2403 3.05122 19.2403Z" fill="#FE4960"/>
<path d="M3.10524 19.5926C4.69725 19.5926 5.98783 18.3171 5.98783 16.7436C5.98783 15.1701 4.69725 13.8945 3.10524 13.8945C1.51324 13.8945 0.222656 15.1701 0.222656 16.7436C0.222656 18.3171 1.51324 19.5926 3.10524 19.5926Z" fill="#FE4A61"/>
<path d="M3.16919 19.9278C4.75661 19.9278 6.04347 18.6559 6.04347 17.0869C6.04347 15.518 4.75661 14.2461 3.16919 14.2461C1.58178 14.2461 0.294922 15.518 0.294922 17.0869C0.294922 18.6559 1.58178 19.9278 3.16919 19.9278Z" fill="#FD4B62"/>
<path d="M3.24584 20.2668C4.82866 20.2668 6.1118 18.9986 6.1118 17.4342C6.1118 15.8698 4.82866 14.6016 3.24584 14.6016C1.66302 14.6016 0.379883 15.8698 0.379883 17.4342C0.379883 18.9986 1.66302 20.2668 3.24584 20.2668Z" fill="#FD4C62"/>
<path d="M3.32721 20.6035C4.90697 20.6035 6.18763 19.3377 6.18763 17.7764C6.18763 16.215 4.90697 14.9492 3.32721 14.9492C1.74745 14.9492 0.466797 16.215 0.466797 17.7764C0.466797 19.3377 1.74745 20.6035 3.32721 20.6035Z" fill="#FD4D63"/>
<path d="M3.42339 20.9347C4.99856 20.9347 6.27549 19.6726 6.27549 18.1158C6.27549 16.5589 4.99856 15.2969 3.42339 15.2969C1.84822 15.2969 0.571289 16.5589 0.571289 18.1158C0.571289 19.6726 1.84822 20.9347 3.42339 20.9347Z" fill="#FD4E64"/>
<path d="M3.52038 21.2636C5.09249 21.2636 6.36694 20.004 6.36694 18.4502C6.36694 16.8963 5.09249 15.6367 3.52038 15.6367C1.94827 15.6367 0.673828 16.8963 0.673828 18.4502C0.673828 20.004 1.94827 21.2636 3.52038 21.2636Z" fill="#FC4F65"/>
<path d="M3.63219 21.587C5.1997 21.587 6.47043 20.3311 6.47043 18.7818C6.47043 17.2325 5.1997 15.9766 3.63219 15.9766C2.06467 15.9766 0.793945 17.2325 0.793945 18.7818C0.793945 20.3311 2.06467 21.587 3.63219 21.587Z" fill="#FC5066"/>
<path d="M3.74985 21.9104C5.31277 21.9104 6.57977 20.6582 6.57977 19.1134C6.57977 17.5687 5.31277 16.3164 3.74985 16.3164C2.18692 16.3164 0.919922 17.5687 0.919922 19.1134C0.919922 20.6582 2.18692 21.9104 3.74985 21.9104Z" fill="#FC5167"/>
<path d="M3.87419 22.2276C5.43405 22.2276 6.69857 20.9778 6.69857 19.4361C6.69857 17.8943 5.43405 16.6445 3.87419 16.6445C2.31432 16.6445 1.0498 17.8943 1.0498 19.4361C1.0498 20.9778 2.31432 22.2276 3.87419 22.2276Z" fill="#FC5268"/>
<path d="M4.00943 22.5354C5.5647 22.5354 6.82549 21.2892 6.82549 19.7521C6.82549 18.2149 5.5647 16.9688 4.00943 16.9688C2.45416 16.9688 1.19336 18.2149 1.19336 19.7521C1.19336 21.2892 2.45416 22.5354 4.00943 22.5354Z" fill="#FB5369"/>
<path d="M4.15525 22.8447C5.70746 22.8447 6.96577 21.601 6.96577 20.0669C6.96577 18.5327 5.70746 17.2891 4.15525 17.2891C2.60304 17.2891 1.34473 18.5327 1.34473 20.0669C1.34473 21.601 2.60304 22.8447 4.15525 22.8447Z" fill="#FB546A"/>
<path d="M4.30904 23.1486C5.85666 23.1486 7.11125 21.9086 7.11125 20.379C7.11125 18.8494 5.85666 17.6094 4.30904 17.6094C2.76143 17.6094 1.50684 18.8494 1.50684 20.379C1.50684 21.9086 2.76143 23.1486 4.30904 23.1486Z" fill="#FB556B"/>
<path d="M4.46772 23.4408C6.01075 23.4408 7.26162 22.2044 7.26162 20.6794C7.26162 19.1543 6.01075 17.918 4.46772 17.918C2.9247 17.918 1.67383 19.1543 1.67383 20.6794C1.67383 22.2044 2.9247 23.4408 4.46772 23.4408Z" fill="#FB566C"/>
<path d="M4.63601 23.7384C6.17597 23.7384 7.42435 22.5045 7.42435 20.9825C7.42435 19.4604 6.17597 18.2266 4.63601 18.2266C3.09604 18.2266 1.84766 19.4604 1.84766 20.9825C1.84766 22.5045 3.09604 23.7384 4.63601 23.7384Z" fill="#FA576D"/>
<path d="M4.81226 24.0227C6.34763 24.0227 7.5923 22.7925 7.5923 21.275C7.5923 19.7575 6.34763 18.5273 4.81226 18.5273C3.27689 18.5273 2.03223 19.7575 2.03223 21.275C2.03223 22.7925 3.27689 24.0227 4.81226 24.0227Z" fill="#FA586E"/>
<path d="M4.99812 24.3125C6.53043 24.3125 7.77261 23.0848 7.77261 21.5703C7.77261 20.0559 6.53043 18.8281 4.99812 18.8281C3.46581 18.8281 2.22363 20.0559 2.22363 21.5703C2.22363 23.0848 3.46581 24.3125 4.99812 24.3125Z" fill="#FA596F"/>
<path d="M5.1861 24.5852C6.71382 24.5852 7.95228 23.3611 7.95228 21.8512C7.95228 20.3412 6.71382 19.1172 5.1861 19.1172C3.65838 19.1172 2.41992 20.3412 2.41992 21.8512C2.41992 23.3611 3.65838 24.5852 5.1861 24.5852Z" fill="#FA5A70"/>
<path d="M5.38286 24.8578C6.90598 24.8578 8.14072 23.6374 8.14072 22.132C8.14072 20.6266 6.90598 19.4062 5.38286 19.4062C3.85974 19.4062 2.625 20.6266 2.625 22.132C2.625 23.6374 3.85974 24.8578 5.38286 24.8578Z" fill="#F95B71"/>
<path d="M5.59021 25.1242C7.11027 25.1242 8.34252 23.9063 8.34252 22.4039C8.34252 20.9015 7.11027 19.6836 5.59021 19.6836C4.07014 19.6836 2.83789 20.9015 2.83789 22.4039C2.83789 23.9063 4.07014 25.1242 5.59021 25.1242Z" fill="#F95C71"/>
<path d="M5.80064 25.389C7.31611 25.389 8.54464 24.1748 8.54464 22.6769C8.54464 21.1791 7.31611 19.9648 5.80064 19.9648C4.28517 19.9648 3.05664 21.1791 3.05664 22.6769C3.05664 24.1748 4.28517 25.389 5.80064 25.389Z" fill="#F95D72"/>
<path d="M6.02084 25.646C7.53172 25.646 8.75653 24.4354 8.75653 22.9421C8.75653 21.4488 7.53172 20.2383 6.02084 20.2383C4.50996 20.2383 3.28516 21.4488 3.28516 22.9421C3.28516 24.4354 4.50996 25.646 6.02084 25.646Z" fill="#F95E73"/>
<path d="M6.24968 25.8929C7.75749 25.8929 8.97982 24.6848 8.97982 23.1945C8.97982 21.7042 7.75749 20.4961 6.24968 20.4961C4.74186 20.4961 3.51953 21.7042 3.51953 23.1945C3.51953 24.6848 4.74186 25.8929 6.24968 25.8929Z" fill="#F95F74"/>
<path d="M6.48159 26.1381C7.98482 26.1381 9.20342 24.9337 9.20342 23.448C9.20342 21.9622 7.98482 20.7578 6.48159 20.7578C4.97837 20.7578 3.75977 21.9622 3.75977 23.448C3.75977 24.9337 4.97837 26.1381 6.48159 26.1381Z" fill="#F86075"/>
<path d="M6.72019 26.3772C8.22036 26.3772 9.43648 25.1752 9.43648 23.6925C9.43648 22.2098 8.22036 21.0078 6.72019 21.0078C5.22003 21.0078 4.00391 22.2098 4.00391 23.6925C4.00391 25.1752 5.22003 26.3772 6.72019 26.3772Z" fill="#F86176"/>
<path d="M6.96578 26.6068C8.46135 26.6068 9.67375 25.4085 9.67375 23.9304C9.67375 22.4522 8.46135 21.2539 6.96578 21.2539C5.47021 21.2539 4.25781 22.4522 4.25781 23.9304C4.25781 25.4085 5.47021 26.6068 6.96578 26.6068Z" fill="#F86277"/>
<path d="M7.21723 26.8326C8.70821 26.8326 9.91689 25.638 9.91689 24.1643C9.91689 22.6907 8.70821 21.4961 7.21723 21.4961C5.72626 21.4961 4.51758 22.6907 4.51758 24.1643C4.51758 25.638 5.72626 26.8326 7.21723 26.8326Z" fill="#F86378"/>
<path d="M7.47536 27.0521C8.96328 27.0521 10.1695 25.8599 10.1695 24.3893C10.1695 22.9187 8.96328 21.7266 7.47536 21.7266C5.98744 21.7266 4.78125 22.9187 4.78125 24.3893C4.78125 25.8599 5.98744 27.0521 7.47536 27.0521Z" fill="#F76479"/>
<path d="M7.74048 27.2622C9.22381 27.2622 10.4263 26.0737 10.4263 24.6077C10.4263 23.1416 9.22381 21.9531 7.74048 21.9531C6.25716 21.9531 5.05469 23.1416 5.05469 24.6077C5.05469 26.0737 6.25716 27.2622 7.74048 27.2622Z" fill="#F7657A"/>
<path d="M8.0074 27.47C9.48766 27.47 10.6877 26.284 10.6877 24.8209C10.6877 23.3579 9.48766 22.1719 8.0074 22.1719C6.52714 22.1719 5.32715 23.3579 5.32715 24.8209C5.32715 26.284 6.52714 27.47 8.0074 27.47Z" fill="#F7667B"/>
<path d="M8.28424 27.6645C9.75991 27.6645 10.9562 26.4822 10.9562 25.0237C10.9562 23.5652 9.75991 22.3828 8.28424 22.3828C6.80857 22.3828 5.6123 23.5652 5.6123 25.0237C5.6123 26.4822 6.80857 27.6645 8.28424 27.6645Z" fill="#F7677C"/>
<path d="M8.56597 27.8551C10.037 27.8551 11.2296 26.6764 11.2296 25.2225C11.2296 23.7685 10.037 22.5898 8.56597 22.5898C7.09489 22.5898 5.90234 23.7685 5.90234 25.2225C5.90234 26.6764 7.09489 27.8551 8.56597 27.8551Z" fill="#F6687D"/>
<path d="M8.85534 28.0434C10.3234 28.0434 11.5134 26.8672 11.5134 25.4162C11.5134 23.9653 10.3234 22.7891 8.85534 22.7891C7.38733 22.7891 6.19727 23.9653 6.19727 25.4162C6.19727 26.8672 7.38733 28.0434 8.85534 28.0434Z" fill="#F6697E"/>
<path d="M9.14488 28.2184C10.6083 28.2184 11.7946 27.0458 11.7946 25.5994C11.7946 24.153 10.6083 22.9805 9.14488 22.9805C7.68146 22.9805 6.49512 24.153 6.49512 25.5994C6.49512 27.0458 7.68146 28.2184 9.14488 28.2184Z" fill="#F66A7F"/>
<path d="M9.44125 28.3855C10.9001 28.3855 12.0827 27.2166 12.0827 25.7748C12.0827 24.3329 10.9001 23.1641 9.44125 23.1641C7.98242 23.1641 6.7998 24.3329 6.7998 25.7748C6.7998 27.2166 7.98242 28.3855 9.44125 28.3855Z" fill="#F66B80"/>
<path d="M9.74723 28.5503C11.203 28.5503 12.3831 27.3839 12.3831 25.9451C12.3831 24.5063 11.203 23.3398 9.74723 23.3398C8.29146 23.3398 7.11133 24.5063 7.11133 25.9451C7.11133 27.3839 8.29146 28.5503 9.74723 28.5503Z" fill="#F56C80"/>
<path d="M10.0514 28.7019C11.5026 28.7019 12.679 27.5391 12.679 26.1048C12.679 24.6705 11.5026 23.5078 10.0514 23.5078C8.60024 23.5078 7.42383 24.6705 7.42383 26.1048C7.42383 27.5391 8.60024 28.7019 10.0514 28.7019Z" fill="#F56D81"/>
<path d="M10.3672 28.8511C11.8153 28.8511 12.9892 27.6908 12.9892 26.2595C12.9892 24.8282 11.8153 23.668 10.3672 23.668C8.91905 23.668 7.74512 24.8282 7.74512 26.2595C7.74512 27.6908 8.91905 28.8511 10.3672 28.8511Z" fill="#F56E82"/>
<path d="M10.6821 28.987C12.1256 28.987 13.2958 27.8304 13.2958 26.4036C13.2958 24.9769 12.1256 23.8203 10.6821 23.8203C9.23857 23.8203 8.06836 24.9769 8.06836 26.4036C8.06836 27.8304 9.23857 28.987 10.6821 28.987Z" fill="#F56F83"/>
<path d="M11.0039 29.1151C12.4428 29.1151 13.6093 27.9621 13.6093 26.54C13.6093 25.1178 12.4428 23.9648 11.0039 23.9648C9.56492 23.9648 8.39844 25.1178 8.39844 26.54C8.39844 27.9621 9.56492 29.1151 11.0039 29.1151Z" fill="#F47084"/>
<path d="M11.3255 29.2369C12.7613 29.2369 13.9253 28.0865 13.9253 26.6673C13.9253 25.2481 12.7613 24.0977 11.3255 24.0977C9.88959 24.0977 8.72559 25.2481 8.72559 26.6673C8.72559 28.0865 9.88959 29.2369 11.3255 29.2369Z" fill="#F47185"/>
<path d="M11.658 29.3494C13.0892 29.3494 14.2495 28.2026 14.2495 26.788C14.2495 25.3733 13.0892 24.2266 11.658 24.2266C10.2267 24.2266 9.06641 25.3733 9.06641 26.788C9.06641 28.2026 10.2267 29.3494 11.658 29.3494Z" fill="#F47286"/>
<path d="M11.9913 29.4556C13.4195 29.4556 14.5773 28.3113 14.5773 26.8997C14.5773 25.4881 13.4195 24.3438 11.9913 24.3438C10.5631 24.3438 9.40527 25.4881 9.40527 26.8997C9.40527 28.3113 10.5631 29.4556 11.9913 29.4556Z" fill="#F47387"/>
<path d="M12.3277 29.5486C13.7513 29.5486 14.9054 28.4079 14.9054 27.0008C14.9054 25.5938 13.7513 24.4531 12.3277 24.4531C10.9041 24.4531 9.75 25.5938 9.75 27.0008C9.75 28.4079 10.9041 29.5486 12.3277 29.5486Z" fill="#F37488"/>
<path d="M12.6719 29.6337C14.091 29.6337 15.2413 28.4967 15.2413 27.0942C15.2413 25.6917 14.091 24.5547 12.6719 24.5547C11.2529 24.5547 10.1025 25.6917 10.1025 27.0942C10.1025 28.4967 11.2529 29.6337 12.6719 29.6337Z" fill="#F37589"/>
<path d="M13.0189 29.7165C14.4349 29.7165 15.5828 28.582 15.5828 27.1825C15.5828 25.783 14.4349 24.6484 13.0189 24.6484C11.6029 24.6484 10.4551 25.783 10.4551 27.1825C10.4551 28.582 11.6029 29.7165 13.0189 29.7165Z" fill="#F3768A"/>
<path d="M13.3651 29.7821C14.7765 29.7821 15.9206 28.6512 15.9206 27.2563C15.9206 25.8613 14.7765 24.7305 13.3651 24.7305C11.9537 24.7305 10.8096 25.8613 10.8096 27.2563C10.8096 28.6512 11.9537 29.7821 13.3651 29.7821Z" fill="#F3778B"/>
<path d="M13.716 29.8453C15.1243 29.8453 16.266 28.7169 16.266 27.325C16.266 25.9331 15.1243 24.8047 13.716 24.8047C12.3077 24.8047 11.166 25.9331 11.166 27.325C11.166 28.7169 12.3077 29.8453 13.716 29.8453Z" fill="#F3788C"/>
<path d="M14.0719 29.8953C15.4757 29.8953 16.6136 28.7706 16.6136 27.3832C16.6136 25.9958 15.4757 24.8711 14.0719 24.8711C12.6682 24.8711 11.5303 25.9958 11.5303 27.3832C11.5303 28.7706 12.6682 29.8953 14.0719 29.8953Z" fill="#F2798D"/>
<path d="M14.4337 29.9375C15.8329 29.9375 16.9671 28.8164 16.9671 27.4336C16.9671 26.0507 15.8329 24.9297 14.4337 24.9297C13.0346 24.9297 11.9004 26.0507 11.9004 27.4336C11.9004 28.8164 13.0346 29.9375 14.4337 29.9375Z" fill="#F27A8E"/>
<path d="M14.7925 29.9695C16.1885 29.9695 17.3203 28.8509 17.3203 27.4711C17.3203 26.0912 16.1885 24.9727 14.7925 24.9727C13.3964 24.9727 12.2646 26.0912 12.2646 27.4711C12.2646 28.8509 13.3964 29.9695 14.7925 29.9695Z" fill="#F27B8F"/>
<path d="M15.1582 29.9843C16.5496 29.9843 17.6777 28.8694 17.6777 27.4941C17.6777 26.1188 16.5496 25.0039 15.1582 25.0039C13.7667 25.0039 12.6387 26.1188 12.6387 27.4941C12.6387 28.8694 13.7667 29.9843 15.1582 29.9843Z" fill="#F27C8F"/>
<path d="M15.5239 29.9991C16.9108 29.9991 18.035 28.8879 18.035 27.5171C18.035 26.1464 16.9108 25.0352 15.5239 25.0352C14.137 25.0352 13.0127 26.1464 13.0127 27.5171C13.0127 28.8879 14.137 29.9991 15.5239 29.9991Z" fill="#F17D90"/>
<path d="M15.8963 29.9998C17.2801 29.9998 18.4019 28.8911 18.4019 27.5234C18.4019 26.1556 17.2801 25.0469 15.8963 25.0469C14.5124 25.0469 13.3906 26.1556 13.3906 27.5234C13.3906 28.8911 14.5124 29.9998 15.8963 29.9998Z" fill="#F17E91"/>
<path d="M16.2688 29.9873C17.648 29.9873 18.7661 28.8822 18.7661 27.519C18.7661 26.1559 17.648 25.0508 16.2688 25.0508C14.8896 25.0508 13.7715 26.1559 13.7715 27.519C13.7715 28.8822 14.8896 29.9873 16.2688 29.9873Z" fill="#F17F92"/>
<path d="M16.6373 29.9725C18.0135 29.9725 19.1291 28.8698 19.1291 27.5097C19.1291 26.1495 18.0135 25.0469 16.6373 25.0469C15.2611 25.0469 14.1455 26.1495 14.1455 27.5097C14.1455 28.8698 15.2611 29.9725 16.6373 29.9725Z" fill="#F18093"/>
<path d="M17.003 29.9443C18.3746 29.9443 19.4865 28.8453 19.4865 27.4897C19.4865 26.1341 18.3746 25.0352 17.003 25.0352C15.6314 25.0352 14.5195 26.1341 14.5195 27.4897C14.5195 28.8453 15.6314 29.9443 17.003 29.9443Z" fill="#F08194"/>
<path d="M17.3648 29.9005C18.7318 29.9005 19.8399 28.8052 19.8399 27.4542C19.8399 26.1031 18.7318 25.0078 17.3648 25.0078C15.9978 25.0078 14.8896 26.1031 14.8896 27.4542C14.8896 28.8052 15.9978 29.9005 17.3648 29.9005Z" fill="#F08295"/>
<path d="M17.7255 29.8544C19.0894 29.8544 20.1951 28.7616 20.1951 27.4135C20.1951 26.0655 19.0894 24.9727 17.7255 24.9727C16.3615 24.9727 15.2559 26.0655 15.2559 27.4135C15.2559 28.7616 16.3615 29.8544 17.7255 29.8544Z" fill="#F08396"/>
<path d="M18.0814 29.795C19.4407 29.795 20.5427 28.7059 20.5427 27.3623C20.5427 26.0188 19.4407 24.9297 18.0814 24.9297C16.7221 24.9297 15.6201 26.0188 15.6201 27.3623C15.6201 28.7059 16.7221 29.795 18.0814 29.795Z" fill="#F08497"/>
<path d="M18.4362 29.7294C19.7925 29.7294 20.892 28.6427 20.892 27.3022C20.892 25.9617 19.7925 24.875 18.4362 24.875C17.0799 24.875 15.9805 25.9617 15.9805 27.3022C15.9805 28.6427 17.0799 29.7294 18.4362 29.7294Z" fill="#EF8598"/>
<path d="M18.7882 29.6543C20.1399 29.6543 21.2357 28.5713 21.2357 27.2354C21.2357 25.8994 20.1399 24.8164 18.7882 24.8164C17.4366 24.8164 16.3408 25.8994 16.3408 27.2354C16.3408 28.5713 17.4366 29.6543 18.7882 29.6543Z" fill="#EF8699"/>
<path d="M19.1383 29.5676C20.4854 29.5676 21.5774 28.4882 21.5774 27.1568C21.5774 25.8254 20.4854 24.7461 19.1383 24.7461C17.7912 24.7461 16.6992 25.8254 16.6992 27.1568C16.6992 28.4882 17.7912 29.5676 19.1383 29.5676Z" fill="#EF879A"/>
<path d="M19.4795 29.4707C20.8235 29.4707 21.913 28.3938 21.913 27.0654C21.913 25.737 20.8235 24.6602 19.4795 24.6602C18.1354 24.6602 17.0459 25.737 17.0459 27.0654C17.0459 28.3938 18.1354 29.4707 19.4795 29.4707Z" fill="#EF889B"/>
<path d="M19.8217 29.3683C21.1612 29.3683 22.247 28.2951 22.247 26.9713C22.247 25.6474 21.1612 24.5742 19.8217 24.5742C18.4823 24.5742 17.3965 25.6474 17.3965 26.9713C17.3965 28.2951 18.4823 29.3683 19.8217 29.3683Z" fill="#EE899C"/>
<path d="M20.1609 29.2558C21.4973 29.2558 22.5806 28.185 22.5806 26.8642C22.5806 25.5434 21.4973 24.4727 20.1609 24.4727C18.8246 24.4727 17.7412 25.5434 17.7412 26.8642C17.7412 28.185 18.8246 29.2558 20.1609 29.2558Z" fill="#EE8A9D"/>
<path d="M20.4915 29.13C21.8232 29.13 22.9029 28.0629 22.9029 26.7466C22.9029 25.4303 21.8232 24.3633 20.4915 24.3633C19.1597 24.3633 18.0801 25.4303 18.0801 26.7466C18.0801 28.0629 19.1597 29.13 20.4915 29.13Z" fill="#EE8B9E"/>
<path d="M20.8181 29.0042C22.1453 29.0042 23.2212 27.9408 23.2212 26.629C23.2212 25.3173 22.1453 24.2539 20.8181 24.2539C19.4909 24.2539 18.415 25.3173 18.415 26.629C18.415 27.9408 19.4909 29.0042 20.8181 29.0042Z" fill="#EE8C9E"/>
<path d="M21.1446 28.8643C22.4687 28.8643 23.5421 27.8034 23.5421 26.4946C23.5421 25.1859 22.4687 24.125 21.1446 24.125C19.8205 24.125 18.7471 25.1859 18.7471 26.4946C18.7471 27.8034 19.8205 28.8643 21.1446 28.8643Z" fill="#ED8D9F"/>
<path d="M21.4615 28.719C22.781 28.719 23.8507 27.6617 23.8507 26.3575C23.8507 25.0533 22.781 23.9961 21.4615 23.9961C20.142 23.9961 19.0723 25.0533 19.0723 26.3575C19.0723 27.6617 20.142 28.719 21.4615 28.719Z" fill="#ED8EA0"/>
<path d="M21.7764 28.5619C23.0914 28.5619 24.1573 27.5083 24.1573 26.2087C24.1573 24.909 23.0914 23.8555 21.7764 23.8555C20.4615 23.8555 19.3955 24.909 19.3955 26.2087C19.3955 27.5083 20.4615 28.5619 21.7764 28.5619Z" fill="#ED8FA1"/>
<path d="M22.0892 28.3986C23.4011 28.3986 24.4646 27.3475 24.4646 26.0509C24.4646 24.7542 23.4011 23.7031 22.0892 23.7031C20.7774 23.7031 19.7139 24.7542 19.7139 26.0509C19.7139 27.3475 20.7774 28.3986 22.0892 28.3986Z" fill="#ED90A2"/>
<path d="M22.3905 28.2298C23.6978 28.2298 24.7575 27.1824 24.7575 25.8903C24.7575 24.5982 23.6978 23.5508 22.3905 23.5508C21.0832 23.5508 20.0234 24.5982 20.0234 25.8903C20.0234 27.1824 21.0832 28.2298 22.3905 28.2298Z" fill="#ED91A3"/>
<path d="M22.6945 28.0509C23.9987 28.0509 25.056 27.0059 25.056 25.7168C25.056 24.4278 23.9987 23.3828 22.6945 23.3828C21.3903 23.3828 20.333 24.4278 20.333 25.7168C20.333 27.0059 21.3903 28.0509 22.6945 28.0509Z" fill="#EC92A4"/>
<path d="M22.9889 27.8665C24.2886 27.8665 25.3421 26.8252 25.3421 25.5407C25.3421 24.2561 24.2886 23.2148 22.9889 23.2148C21.6893 23.2148 20.6357 24.2561 20.6357 25.5407C20.6357 26.8252 21.6893 27.8665 22.9889 27.8665Z" fill="#EC93A5"/>
<path d="M23.2804 27.6743C24.5755 27.6743 25.6253 26.6366 25.6253 25.3567C25.6253 24.0767 24.5755 23.0391 23.2804 23.0391C21.9854 23.0391 20.9355 24.0767 20.9355 25.3567C20.9355 26.6366 21.9854 27.6743 23.2804 27.6743Z" fill="#EC94A6"/>
<path d="M23.5639 27.4719C24.8559 27.4719 25.9033 26.4367 25.9033 25.1598C25.9033 23.8828 24.8559 22.8477 23.5639 22.8477C22.272 22.8477 21.2246 23.8828 21.2246 25.1598C21.2246 26.4367 22.272 27.4719 23.5639 27.4719Z" fill="#EC95A7"/>
<path d="M23.8476 27.2601C25.135 27.2601 26.1786 26.2287 26.1786 24.9562C26.1786 23.6838 25.135 22.6523 23.8476 22.6523C22.5602 22.6523 21.5166 23.6838 21.5166 24.9562C21.5166 26.2287 22.5602 27.2601 23.8476 27.2601Z" fill="#EB96A8"/>
<path d="M24.1175 27.05C25.4018 27.05 26.4429 26.0209 26.4429 24.7515C26.4429 23.4822 25.4018 22.4531 24.1175 22.4531C22.8331 22.4531 21.792 23.4822 21.792 24.7515C21.792 26.0209 22.8331 27.05 24.1175 27.05Z" fill="#EB97A9"/>
<path d="M24.3865 26.8265C25.6662 26.8265 26.7036 25.8011 26.7036 24.5363C26.7036 23.2715 25.6662 22.2461 24.3865 22.2461C23.1068 22.2461 22.0693 23.2715 22.0693 24.5363C22.0693 25.8011 23.1068 26.8265 24.3865 26.8265Z" fill="#EB98AA"/>
<path d="M24.6506 26.5991C25.9258 26.5991 26.9595 25.5774 26.9595 24.3171C26.9595 23.0568 25.9258 22.0352 24.6506 22.0352C23.3755 22.0352 22.3418 23.0568 22.3418 24.3171C22.3418 25.5774 23.3755 26.5991 24.6506 26.5991Z" fill="#EB99AB"/>
<path d="M24.9049 26.3655C26.1769 26.3655 27.2082 25.3463 27.2082 24.089C27.2082 22.8317 26.1769 21.8125 24.9049 21.8125C23.6328 21.8125 22.6016 22.8317 22.6016 24.089C22.6016 25.3463 23.6328 26.3655 24.9049 26.3655Z" fill="#EA9AAC"/>
<path d="M25.1583 26.1225C26.4257 26.1225 27.4532 25.107 27.4532 23.8542C27.4532 22.6015 26.4257 21.5859 25.1583 21.5859C23.8908 21.5859 22.8633 22.6015 22.8633 23.8542C22.8633 25.107 23.8908 26.1225 25.1583 26.1225Z" fill="#EA9BAD"/>
<path d="M25.398 25.8756C26.6609 25.8756 27.6847 24.8637 27.6847 23.6155C27.6847 22.3673 26.6609 21.3555 25.398 21.3555C24.1351 21.3555 23.1113 22.3673 23.1113 23.6155C23.1113 24.8637 24.1351 25.8756 25.398 25.8756Z" fill="#EA9CAD"/>
<path d="M25.6366 25.6225C26.8964 25.6225 27.9177 24.613 27.9177 23.3679C27.9177 22.1227 26.8964 21.1133 25.6366 21.1133C24.3768 21.1133 23.3555 22.1227 23.3555 23.3679C23.3555 24.613 24.3768 25.6225 25.6366 25.6225Z" fill="#EA9DAE"/>
<path d="M25.8646 25.356C27.1198 25.356 28.1374 24.3503 28.1374 23.1097C28.1374 21.869 27.1198 20.8633 25.8646 20.8633C24.6094 20.8633 23.5918 21.869 23.5918 23.1097C23.5918 24.3503 24.6094 25.356 25.8646 25.356Z" fill="#E99EAF"/>
<path d="M26.0895 25.0951C27.3417 25.0951 28.3568 24.0918 28.3568 22.8542C28.3568 21.6166 27.3417 20.6133 26.0895 20.6133C24.8374 20.6133 23.8223 21.6166 23.8223 22.8542C23.8223 24.0918 24.8374 25.0951 26.0895 25.0951Z" fill="#E99FB0"/>
<path d="M26.3078 24.8208C27.5554 24.8208 28.5667 23.8212 28.5667 22.5881C28.5667 21.3551 27.5554 20.3555 26.3078 20.3555C25.0602 20.3555 24.0488 21.3551 24.0488 22.5881C24.0488 23.8212 25.0602 24.8208 26.3078 24.8208Z" fill="#E9A0B1"/>
<path d="M26.5182 24.5427C27.7612 24.5427 28.7689 23.5467 28.7689 22.3182C28.7689 21.0897 27.7612 20.0938 26.5182 20.0938C25.2752 20.0938 24.2676 21.0897 24.2676 22.3182C24.2676 23.5467 25.2752 24.5427 26.5182 24.5427Z" fill="#E9A1B2"/>
<path d="M26.7168 24.2583C27.9567 24.2583 28.9619 23.2648 28.9619 22.0393C28.9619 20.8138 27.9567 19.8203 26.7168 19.8203C25.4768 19.8203 24.4717 20.8138 24.4717 22.0393C24.4717 23.2648 25.4768 24.2583 26.7168 24.2583Z" fill="#E8A2B3"/>
<path d="M26.9155 23.9684C28.1508 23.9684 29.1523 22.9786 29.1523 21.7576C29.1523 20.5367 28.1508 19.5469 26.9155 19.5469C25.6802 19.5469 24.6787 20.5367 24.6787 21.7576C24.6787 22.9786 25.6802 23.9684 26.9155 23.9684Z" fill="#E8A3B4"/>
<path d="M27.1053 23.6762C28.3375 23.6762 29.3365 22.6888 29.3365 21.4709C29.3365 20.253 28.3375 19.2656 27.1053 19.2656C25.873 19.2656 24.874 20.253 24.874 21.4709C24.874 22.6888 25.873 23.6762 27.1053 23.6762Z" fill="#E8A4B5"/>
<path d="M27.2854 23.3746C28.5131 23.3746 29.5083 22.3909 29.5083 21.1775C29.5083 19.9641 28.5131 18.9805 27.2854 18.9805C26.0577 18.9805 25.0625 19.9641 25.0625 21.1775C25.0625 22.3909 26.0577 23.3746 27.2854 23.3746Z" fill="#E8A5B6"/>
<path d="M27.4587 23.0691C28.6818 23.0691 29.6733 22.0891 29.6733 20.8803C29.6733 19.6714 28.6818 18.6914 27.4587 18.6914C26.2357 18.6914 25.2441 19.6714 25.2441 20.8803C25.2441 22.0891 26.2357 23.0691 27.4587 23.0691Z" fill="#E7A6B7"/>
<path d="M27.6221 22.7613C28.8422 22.7613 29.8312 21.7837 29.8312 20.5779C29.8312 19.3721 28.8422 18.3945 27.6221 18.3945C26.4021 18.3945 25.4131 19.3721 25.4131 20.5779C25.4131 21.7837 26.4021 22.7613 27.6221 22.7613Z" fill="#E7A7B8"/>
<path d="M27.7818 22.4479C28.9972 22.4479 29.9825 21.4741 29.9825 20.2728C29.9825 19.0715 28.9972 18.0977 27.7818 18.0977C26.5664 18.0977 25.5811 19.0715 25.5811 20.2728C25.5811 21.4741 26.5664 22.4479 27.7818 22.4479Z" fill="#E7A8B9"/>
<path d="M27.9315 22.1323C29.1439 22.1323 30.1267 21.1609 30.1267 19.9626C30.1267 18.7644 29.1439 17.793 27.9315 17.793C26.7192 17.793 25.7363 18.7644 25.7363 19.9626C25.7363 21.1609 26.7192 22.1323 27.9315 22.1323Z" fill="#E7A9BA"/>
<path d="M28.0726 21.8073C29.2804 21.8073 30.2595 20.8396 30.2595 19.6458C30.2595 18.4521 29.2804 17.4844 28.0726 17.4844C26.8648 17.4844 25.8857 18.4521 25.8857 19.6458C25.8857 20.8396 26.8648 21.8073 28.0726 21.8073Z" fill="#E7AABB"/>
<path d="M28.2059 21.4783C29.4091 21.4783 30.3845 20.5143 30.3845 19.3251C30.3845 18.1359 29.4091 17.1719 28.2059 17.1719C27.0027 17.1719 26.0273 18.1359 26.0273 19.3251C26.0273 20.5143 27.0027 21.4783 28.2059 21.4783Z" fill="#E6ABBC"/>
<path d="M28.3293 21.1471C29.5294 21.1471 30.5023 20.1855 30.5023 18.9993C30.5023 17.8131 29.5294 16.8516 28.3293 16.8516C27.1291 16.8516 26.1562 17.8131 26.1562 18.9993C26.1562 20.1855 27.1291 21.1471 28.3293 21.1471Z" fill="#E6ACBC"/>
<path d="M28.4469 20.8103C29.6425 20.8103 30.6116 19.8524 30.6116 18.6708C30.6116 17.4892 29.6425 16.5312 28.4469 16.5312C27.2514 16.5312 26.2822 17.4892 26.2822 18.6708C26.2822 19.8524 27.2514 20.8103 28.4469 20.8103Z" fill="#E6ADBD"/>
<path d="M28.5509 20.4736C29.7419 20.4736 30.7073 19.5193 30.7073 18.3422C30.7073 17.1652 29.7419 16.2109 28.5509 16.2109C27.36 16.2109 26.3945 17.1652 26.3945 18.3422C26.3945 19.5193 27.36 20.4736 28.5509 20.4736Z" fill="#E6AEBE"/>
<path d="M28.6489 20.1306C29.8368 20.1306 30.7997 19.1788 30.7997 18.0047C30.7997 16.8307 29.8368 15.8789 28.6489 15.8789C27.461 15.8789 26.498 16.8307 26.498 18.0047C26.498 19.1788 27.461 20.1306 28.6489 20.1306Z" fill="#E5AFBF"/>
<path d="M28.7412 19.7821C29.9245 19.7821 30.8837 18.834 30.8837 17.6645C30.8837 16.495 29.9245 15.5469 28.7412 15.5469C27.5579 15.5469 26.5986 16.495 26.5986 17.6645C26.5986 18.834 27.5579 19.7821 28.7412 19.7821Z" fill="#E5B0C0"/>
<path d="M28.8186 19.4313C29.9989 19.4313 30.9556 18.4857 30.9556 17.3192C30.9556 16.1527 29.9989 15.207 28.8186 15.207C27.6384 15.207 26.6816 16.1527 26.6816 17.3192C26.6816 18.4857 27.6384 19.4313 28.8186 19.4313Z" fill="#E5B1C1"/>
<path d="M28.8894 19.0789C30.0651 19.0789 31.0181 18.137 31.0181 16.975C31.0181 15.813 30.0651 14.8711 28.8894 14.8711C27.7138 14.8711 26.7607 15.813 26.7607 16.975C26.7607 18.137 27.7138 19.0789 28.8894 19.0789Z" fill="#E5B2C2"/>
<path d="M28.9534 18.7187C30.1244 18.7187 31.0737 17.7805 31.0737 16.623C31.0737 15.4656 30.1244 14.5273 28.9534 14.5273C27.7823 14.5273 26.833 15.4656 26.833 16.623C26.833 17.7805 27.7823 18.7187 28.9534 18.7187Z" fill="#E4B3C3"/>
<path d="M29.0035 18.3601C30.1715 18.3601 31.1183 17.4243 31.1183 16.2699C31.1183 15.1155 30.1715 14.1797 29.0035 14.1797C27.8355 14.1797 26.8887 15.1155 26.8887 16.2699C26.8887 17.4243 27.8355 18.3601 29.0035 18.3601Z" fill="#E4B4C4"/>
<path d="M29.0421 17.996C30.2054 17.996 31.1486 17.0639 31.1486 15.914C31.1486 14.7642 30.2054 13.832 29.0421 13.832C27.8787 13.832 26.9355 14.7642 26.9355 15.914C26.9355 17.0639 27.8787 17.996 29.0421 17.996Z" fill="#E4B5C5"/>
<path d="M29.0717 17.6257C30.232 17.6257 31.1726 16.696 31.1726 15.5492C31.1726 14.4023 30.232 13.4727 29.0717 13.4727C27.9113 13.4727 26.9707 14.4023 26.9707 15.5492C26.9707 16.696 27.9113 17.6257 29.0717 17.6257Z" fill="#E4B6C6"/>
<path d="M29.0975 17.2577C30.2533 17.2577 31.1902 16.3317 31.1902 15.1894C31.1902 14.0471 30.2533 13.1211 29.0975 13.1211C27.9418 13.1211 27.0049 14.0471 27.0049 15.1894C27.0049 16.3317 27.9418 17.2577 29.0975 17.2577Z" fill="#E3B7C7"/>
<path d="M29.1087 16.8858C30.2599 16.8858 31.1931 15.9635 31.1931 14.8257C31.1931 13.688 30.2599 12.7656 29.1087 12.7656C27.9576 12.7656 27.0244 13.688 27.0244 14.8257C27.0244 15.9635 27.9576 16.8858 29.1087 16.8858Z" fill="#E3B8C8"/>
<path d="M29.111 16.5116C30.2591 16.5116 31.1898 15.5917 31.1898 14.457C31.1898 13.3222 30.2591 12.4023 29.111 12.4023C27.9629 12.4023 27.0322 13.3222 27.0322 14.457C27.0322 15.5917 27.9629 16.5116 29.111 16.5116Z" fill="#E3B9C9"/>
<path d="M29.1027 16.1396C30.2462 16.1396 31.1732 15.2235 31.1732 14.0933C31.1732 12.9631 30.2462 12.0469 29.1027 12.0469C27.9592 12.0469 27.0322 12.9631 27.0322 14.0933C27.0322 15.2235 27.9592 16.1396 29.1027 16.1396Z" fill="#E3BACA"/>
<path d="M29.0827 15.7677C30.2216 15.7677 31.1448 14.8552 31.1448 13.7296C31.1448 12.6039 30.2216 11.6914 29.0827 11.6914C27.9438 11.6914 27.0205 12.6039 27.0205 13.7296C27.0205 14.8552 27.9438 15.7677 29.0827 15.7677Z" fill="#E2BBCB"/>
<path d="M29.0556 15.4052C30.1915 15.4052 31.1123 14.4952 31.1123 13.3725C31.1123 12.2499 30.1915 11.3398 29.0556 11.3398C27.9198 11.3398 26.999 12.2499 26.999 13.3725C26.999 14.4952 27.9198 15.4052 29.0556 15.4052Z" fill="#E2BCCB"/>
<path d="M29.017 15.0372C30.1483 15.0372 31.0653 14.1308 31.0653 13.0128C31.0653 11.8947 30.1483 10.9883 29.017 10.9883C27.8858 10.9883 26.9688 11.8947 26.9688 13.0128C26.9688 14.1308 27.8858 15.0372 29.017 15.0372Z" fill="#E2BDCC"/>
<path d="M28.9705 14.6747C30.0987 14.6747 31.0133 13.7708 31.0133 12.6557C31.0133 11.5407 30.0987 10.6367 28.9705 10.6367C27.8423 10.6367 26.9277 11.5407 26.9277 12.6557C26.9277 13.7708 27.8423 14.6747 28.9705 14.6747Z" fill="#E2BECD"/>
<path d="M28.9114 14.3184C30.035 14.3184 30.9458 13.4182 30.9458 12.3077C30.9458 11.1971 30.035 10.2969 28.9114 10.2969C27.7878 10.2969 26.877 11.1971 26.877 12.3077C26.877 13.4182 27.7878 14.3184 28.9114 14.3184Z" fill="#E1BFCE"/>
<path d="M28.8435 13.9621C29.9625 13.9621 30.8696 13.0656 30.8696 11.9596C30.8696 10.8536 29.9625 9.95703 28.8435 9.95703C27.7245 9.95703 26.8174 10.8536 26.8174 11.9596C26.8174 13.0656 27.7245 13.9621 28.8435 13.9621Z" fill="#E1C0CF"/>
<path d="M28.7696 13.6113C29.8855 13.6113 30.7902 12.7172 30.7902 11.6143C30.7902 10.5113 29.8855 9.61719 28.7696 9.61719C27.6537 9.61719 26.749 10.5113 26.749 11.6143C26.749 12.7172 27.6537 13.6113 28.7696 13.6113Z" fill="#E1C1D0"/>
<path d="M28.6841 13.2629C29.7955 13.2629 30.6964 12.3724 30.6964 11.274C30.6964 10.1756 29.7955 9.28516 28.6841 9.28516C27.5728 9.28516 26.6719 10.1756 26.6719 11.274C26.6719 12.3724 27.5728 13.2629 28.6841 13.2629Z" fill="#E1C2D1"/>
<path d="M28.5819 12.9199C29.6902 12.9199 30.5886 12.0319 30.5886 10.9365C30.5886 9.84111 29.6902 8.95312 28.5819 8.95312C27.4736 8.95312 26.5752 9.84111 26.5752 10.9365C26.5752 12.0319 27.4736 12.9199 28.5819 12.9199Z" fill="#E1C3D2"/>
<path d="M28.4828 12.5753C29.5865 12.5753 30.4812 11.691 30.4812 10.6002C30.4812 9.50931 29.5865 8.625 28.4828 8.625C27.3791 8.625 26.4844 9.50931 26.4844 10.6002C26.4844 11.691 27.3791 12.5753 28.4828 12.5753Z" fill="#E0C4D3"/>
<path d="M28.3661 12.2386C29.4652 12.2386 30.3562 11.3579 30.3562 10.2716C30.3562 9.18532 29.4652 8.30469 28.3661 8.30469C27.267 8.30469 26.376 9.18532 26.376 10.2716C26.376 11.3579 27.267 12.2386 28.3661 12.2386Z" fill="#E0C5D4"/>
<path d="M28.2463 11.9073C29.3423 11.9073 30.2308 11.0291 30.2308 9.94584C30.2308 8.86255 29.3423 7.98438 28.2463 7.98438C27.1502 7.98438 26.2617 8.86255 26.2617 9.94584C26.2617 11.0291 27.1502 11.9073 28.2463 11.9073Z" fill="#E0C6D5"/>
<path d="M28.1159 11.5784C29.2073 11.5784 30.0921 10.7039 30.0921 9.62512C30.0921 8.54637 29.2073 7.67188 28.1159 7.67188C27.0244 7.67188 26.1396 8.54637 26.1396 9.62512C26.1396 10.7039 27.0244 11.5784 28.1159 11.5784Z" fill="#E0C7D6"/>
<path d="M27.9765 11.251C29.0649 11.251 29.9472 10.379 29.9472 9.30323C29.9472 8.22751 29.0649 7.35547 27.9765 7.35547C26.8882 7.35547 26.0059 8.22751 26.0059 9.30323C26.0059 10.379 26.8882 11.251 27.9765 11.251Z" fill="#DFC8D7"/>
<path d="M27.8325 10.9338C28.9163 10.9338 29.7949 10.0654 29.7949 8.99424C29.7949 7.92305 28.9163 7.05469 27.8325 7.05469C26.7487 7.05469 25.8701 7.92305 25.8701 8.99424C25.8701 10.0654 26.7487 10.9338 27.8325 10.9338Z" fill="#DFC9D8"/>
<path d="M27.6787 10.6205C28.7579 10.6205 29.6327 9.75579 29.6327 8.68914C29.6327 7.6225 28.7579 6.75781 27.6787 6.75781C26.5995 6.75781 25.7246 7.6225 25.7246 8.68914C25.7246 9.75579 26.5995 10.6205 27.6787 10.6205Z" fill="#DFCAD9"/>
<path d="M27.5139 10.3087C28.5901 10.3087 29.4625 9.4465 29.4625 8.38288C29.4625 7.31926 28.5901 6.45703 27.5139 6.45703C26.4378 6.45703 25.5654 7.31926 25.5654 8.38288C25.5654 9.4465 26.4378 10.3087 27.5139 10.3087Z" fill="#DFCBDA"/>
<path d="M27.3435 10.0032C28.4151 10.0032 29.2837 9.14468 29.2837 8.0856C29.2837 7.02652 28.4151 6.16797 27.3435 6.16797C26.272 6.16797 25.4033 7.02652 25.4033 8.0856C25.4033 9.14468 26.272 10.0032 27.3435 10.0032Z" fill="#DECCDA"/>
<path d="M27.1663 9.69774C28.2332 9.69774 29.0981 8.84286 29.0981 7.78832C29.0981 6.73378 28.2332 5.87891 27.1663 5.87891C26.0993 5.87891 25.2344 6.73378 25.2344 7.78832C25.2344 8.84286 26.0993 9.69774 27.1663 9.69774Z" fill="#DECDDB"/>
<path d="M26.981 9.40553C28.0449 9.40553 28.9074 8.55311 28.9074 7.50159C28.9074 6.45008 28.0449 5.59766 26.981 5.59766C25.9171 5.59766 25.0547 6.45008 25.0547 7.50159C25.0547 8.55311 25.9171 9.40553 26.981 9.40553Z" fill="#DECEDC"/>
<path d="M26.7862 9.11175C27.8455 9.11175 28.7042 8.26301 28.7042 7.21603C28.7042 6.16905 27.8455 5.32031 26.7862 5.32031C25.7269 5.32031 24.8682 6.16905 24.8682 7.21603C24.8682 8.26301 25.7269 9.11175 26.7862 9.11175Z" fill="#DECFDD"/>
<path d="M26.5873 8.83126C27.6435 8.83126 28.4998 7.98497 28.4998 6.94102C28.4998 5.89707 27.6435 5.05078 26.5873 5.05078C25.5311 5.05078 24.6748 5.89707 24.6748 6.94102C24.6748 7.98497 25.5311 8.83126 26.5873 8.83126Z" fill="#DDD0DE"/>
<path d="M26.3758 8.54529C27.4275 8.54529 28.28 7.70268 28.28 6.66327C28.28 5.62386 27.4275 4.78125 26.3758 4.78125C25.3242 4.78125 24.4717 5.62386 24.4717 6.66327C24.4717 7.70268 25.3242 8.54529 26.3758 8.54529Z" fill="#DDD1DF"/>
<path d="M26.1634 8.27495C27.2105 8.27495 28.0593 7.43602 28.0593 6.40115C28.0593 5.36627 27.2105 4.52734 26.1634 4.52734C25.1164 4.52734 24.2676 5.36627 24.2676 6.40115C24.2676 7.43602 25.1164 8.27495 26.1634 8.27495Z" fill="#DDD2E0"/>
<path d="M25.943 8.00618C26.987 8.00618 27.8334 7.1697 27.8334 6.13786C27.8334 5.10601 26.987 4.26953 25.943 4.26953C24.8991 4.26953 24.0527 5.10601 24.0527 6.13786C24.0527 7.1697 24.8991 8.00618 25.943 8.00618Z" fill="#DDD3E1"/>
<path d="M25.714 7.74365C26.7534 7.74365 27.596 6.91085 27.596 5.88354C27.596 4.85623 26.7534 4.02344 25.714 4.02344C24.6746 4.02344 23.832 4.85623 23.832 5.88354C23.832 6.91085 24.6746 7.74365 25.714 7.74365Z" fill="#DCD4E2"/>
<path d="M25.478 7.4905C26.5143 7.4905 27.3545 6.66015 27.3545 5.63587C27.3545 4.61159 26.5143 3.78125 25.478 3.78125C24.4417 3.78125 23.6016 4.61159 23.6016 5.63587C23.6016 6.66015 24.4417 7.4905 25.478 7.4905Z" fill="#DCD5E3"/>
<path d="M25.2353 7.23969C26.2671 7.23969 27.1035 6.41302 27.1035 5.39328C27.1035 4.37354 26.2671 3.54688 25.2353 3.54688C24.2036 3.54688 23.3672 4.37354 23.3672 5.39328C23.3672 6.41302 24.2036 7.23969 25.2353 7.23969Z" fill="#DCD6E4"/>
<path d="M24.9887 6.99278C26.0159 6.99278 26.8486 6.1698 26.8486 5.15459C26.8486 4.13939 26.0159 3.31641 24.9887 3.31641C23.9616 3.31641 23.1289 4.13939 23.1289 5.15459C23.1289 6.1698 23.9616 6.99278 24.9887 6.99278Z" fill="#DCD7E5"/>
<path d="M24.7351 6.75917C25.7592 6.75917 26.5894 5.93864 26.5894 4.92646C26.5894 3.91428 25.7592 3.09375 24.7351 3.09375C23.711 3.09375 22.8809 3.91428 22.8809 4.92646C22.8809 5.93864 23.711 6.75917 24.7351 6.75917Z" fill="#DBD8E6"/>
<path d="M24.4749 6.52398C25.4944 6.52398 26.3208 5.70713 26.3208 4.69949C26.3208 3.69185 25.4944 2.875 24.4749 2.875C23.4554 2.875 22.6289 3.69185 22.6289 4.69949C22.6289 5.70713 23.4554 6.52398 24.4749 6.52398Z" fill="#DBD9E7"/>
<path d="M24.2087 6.30051C25.2236 6.30051 26.0464 5.48734 26.0464 4.48424C26.0464 3.48114 25.2236 2.66797 24.2087 2.66797C23.1938 2.66797 22.3711 3.48114 22.3711 4.48424C22.3711 5.48734 23.1938 6.30051 24.2087 6.30051Z" fill="#DBDAE8"/>
<path d="M23.9376 6.08643C24.9494 6.08643 25.7697 5.27571 25.7697 4.27564C25.7697 3.27556 24.9494 2.46484 23.9376 2.46484C22.9257 2.46484 22.1055 3.27556 22.1055 4.27564C22.1055 5.27571 22.9257 6.08643 23.9376 6.08643Z" fill="#DBDBE9"/>
<path d="M23.6607 5.87078C24.668 5.87078 25.4845 5.06374 25.4845 4.0682C25.4845 3.07267 24.668 2.26562 23.6607 2.26562C22.6535 2.26562 21.8369 3.07267 21.8369 4.0682C21.8369 5.06374 22.6535 5.87078 23.6607 5.87078Z" fill="#DBDCE9"/>
<path d="M23.3739 5.67232C24.3781 5.67232 25.1922 4.86773 25.1922 3.87522C25.1922 2.88271 24.3781 2.07812 23.3739 2.07812C22.3697 2.07812 21.5557 2.88271 21.5557 3.87522C21.5557 4.86773 22.3697 5.67232 23.3739 5.67232Z" fill="#DADDEA"/>
<path d="M23.0863 5.47619C24.0859 5.47619 24.8962 4.67529 24.8962 3.68732C24.8962 2.69935 24.0859 1.89844 23.0863 1.89844C22.0867 1.89844 21.2764 2.69935 21.2764 3.68732C21.2764 4.67529 22.0867 5.47619 23.0863 5.47619Z" fill="#DADEEB"/>
<path d="M22.7899 5.28788C23.7849 5.28788 24.5915 4.49065 24.5915 3.50722C24.5915 2.52379 23.7849 1.72656 22.7899 1.72656C21.7949 1.72656 20.9883 2.52379 20.9883 3.50722C20.9883 4.49065 21.7949 5.28788 22.7899 5.28788Z" fill="#DADFEC"/>
<path d="M22.4933 5.10505C23.4853 5.10505 24.2894 4.31027 24.2894 3.32987C24.2894 2.34946 23.4853 1.55469 22.4933 1.55469C21.5014 1.55469 20.6973 2.34946 20.6973 3.32987C20.6973 4.31027 21.5014 5.10505 22.4933 5.10505Z" fill="#DAE0ED"/>
<path d="M22.1891 4.92845C23.1765 4.92845 23.9769 4.13736 23.9769 3.16149C23.9769 2.18563 23.1765 1.39453 22.1891 1.39453C21.2018 1.39453 20.4014 2.18563 20.4014 3.16149C20.4014 4.13736 21.2018 4.92845 22.1891 4.92845Z" fill="#D9E1EE"/>
<path d="M21.8789 4.77297C22.8632 4.77297 23.6611 3.98432 23.6611 3.01148C23.6611 2.03864 22.8632 1.25 21.8789 1.25C20.8946 1.25 20.0967 2.03864 20.0967 3.01148C20.0967 3.98432 20.8946 4.77297 21.8789 4.77297Z" fill="#D9E2EF"/>
<path d="M21.5669 4.60809C22.5466 4.60809 23.3408 3.82313 23.3408 2.85483C23.3408 1.88653 22.5466 1.10156 21.5669 1.10156C20.5872 1.10156 19.793 1.88653 19.793 2.85483C19.793 3.82313 20.5872 4.60809 21.5669 4.60809Z" fill="#D9E3F0"/>
<path d="M21.2519 4.45884C22.227 4.45884 23.0175 3.67756 23.0175 2.7138C23.0175 1.75003 22.227 0.96875 21.2519 0.96875C20.2768 0.96875 19.4863 1.75003 19.4863 2.7138C19.4863 3.67756 20.2768 4.45884 21.2519 4.45884Z" fill="#D9E4F1"/>
<path d="M20.9251 4.31898C21.8971 4.31898 22.6851 3.54015 22.6851 2.57941C22.6851 1.61867 21.8971 0.839844 20.9251 0.839844C19.953 0.839844 19.165 1.61867 19.165 2.57941C19.165 3.54015 19.953 4.31898 20.9251 4.31898Z" fill="#D8E5F2"/>
<path d="M20.5974 4.18926C21.5649 4.18926 22.3492 3.41411 22.3492 2.45791C22.3492 1.50171 21.5649 0.726562 20.5974 0.726562C19.63 0.726562 18.8457 1.50171 18.8457 2.45791C18.8457 3.41411 19.63 4.18926 20.5974 4.18926Z" fill="#D8E6F3"/>
<path d="M20.2686 4.06502C21.233 4.06502 22.0148 3.29232 22.0148 2.33915C22.0148 1.38598 21.233 0.613281 20.2686 0.613281C19.3043 0.613281 18.5225 1.38598 18.5225 2.33915C18.5225 3.29232 19.3043 4.06502 20.2686 4.06502Z" fill="#D8E7F4"/>
<path d="M19.9322 3.94702C20.892 3.94702 21.6701 3.178 21.6701 2.22937C21.6701 1.28074 20.892 0.511719 19.9322 0.511719C18.9724 0.511719 18.1943 1.28074 18.1943 2.22937C18.1943 3.178 18.9724 3.94702 19.9322 3.94702Z" fill="#D8E8F5"/>
<path d="M19.5928 3.83683C20.548 3.83683 21.3224 3.07149 21.3224 2.1274C21.3224 1.18331 20.548 0.417969 19.5928 0.417969C18.6376 0.417969 17.8633 1.18331 17.8633 2.1274C17.8633 3.07149 18.6376 3.83683 19.5928 3.83683Z" fill="#D7E9F6"/>
<path d="M19.2523 3.73994C20.2045 3.73994 20.9763 2.97705 20.9763 2.03599C20.9763 1.09492 20.2045 0.332031 19.2523 0.332031C18.3002 0.332031 17.5283 1.09492 17.5283 2.03599C17.5283 2.97705 18.3002 3.73994 19.2523 3.73994Z" fill="#D7EAF7"/>
<path d="M18.9051 3.65319C19.8527 3.65319 20.6208 2.89398 20.6208 1.95745C20.6208 1.02093 19.8527 0.261719 18.9051 0.261719C17.9576 0.261719 17.1895 1.02093 17.1895 1.95745C17.1895 2.89398 17.9576 3.65319 18.9051 3.65319Z" fill="#D7EBF8"/>
<path d="M18.5541 3.57035C19.497 3.57035 20.2614 2.81482 20.2614 1.88283C20.2614 0.95084 19.497 0.195312 18.5541 0.195312C17.6111 0.195312 16.8467 0.95084 16.8467 1.88283C16.8467 2.81482 17.6111 3.57035 18.5541 3.57035Z" fill="#D7ECF8"/>
<path d="M18.2018 3.5008C19.1417 3.5008 19.9037 2.74772 19.9037 1.81876C19.9037 0.889793 19.1417 0.136719 18.2018 0.136719C17.2619 0.136719 16.5 0.889793 16.5 1.81876C16.5 2.74772 17.2619 3.5008 18.2018 3.5008Z" fill="#D6EDF9"/>
<path d="M17.8439 3.43748C18.7792 3.43748 19.5374 2.68809 19.5374 1.76366C19.5374 0.839238 18.7792 0.0898438 17.8439 0.0898438C16.9086 0.0898438 16.1504 0.839238 16.1504 1.76366C16.1504 2.68809 16.9086 3.43748 17.8439 3.43748Z" fill="#D6EEFA"/>
<path d="M17.4858 3.39137C18.4181 3.39137 19.1738 2.64443 19.1738 1.72303C19.1738 0.801629 18.4181 0.0546875 17.4858 0.0546875C16.5536 0.0546875 15.7979 0.801629 15.7979 1.72303C15.7979 2.64443 16.5536 3.39137 17.4858 3.39137Z" fill="#D6EFFB"/>
<path d="M17.123 3.34368C18.0507 3.34368 18.8027 2.60042 18.8027 1.68356C18.8027 0.7667 18.0507 0.0234375 17.123 0.0234375C16.1954 0.0234375 15.4434 0.7667 15.4434 1.68356C15.4434 2.60042 16.1954 3.34368 17.123 3.34368Z" fill="#D6F0FC"/>
<path d="M16.7583 3.31162C17.6813 3.31162 18.4296 2.57204 18.4296 1.65972C18.4296 0.747395 17.6813 0.0078125 16.7583 0.0078125C15.8352 0.0078125 15.0869 0.747395 15.0869 1.65972C15.0869 2.57204 15.8352 3.31162 16.7583 3.31162Z" fill="#D5F1FD"/>
<path d="M16.3885 3.29285C17.3085 3.29285 18.0543 2.55572 18.0543 1.64642C18.0543 0.73713 17.3085 0 16.3885 0C15.4685 0 14.7227 0.73713 14.7227 1.64642C14.7227 2.55572 15.4685 3.29285 16.3885 3.29285Z" fill="#D5F2FE"/>
<path d="M16.0178 3.28032C16.9333 3.28032 17.6753 2.54687 17.6753 1.64211C17.6753 0.737356 16.9333 0.00390625 16.0178 0.00390625C15.1024 0.00390625 14.3604 0.737356 14.3604 1.64211C14.3604 2.54687 15.1024 3.28032 16.0178 3.28032Z" fill="#D5F3FF"/>
<path fill-rule="evenodd" clip-rule="evenodd" d="M73.4235 9.87786C71.8908 8.65605 69.945 7.92188 67.8274 7.92188C62.9076 7.92188 58.9053 11.8777 58.9053 16.7402C58.9053 21.6028 62.9076 25.5586 67.8274 25.5586C69.945 25.5586 71.8908 24.8244 73.4235 23.6026V25.5833H76.7496V8.07529H73.4235V9.87786ZM67.8274 22.2712C64.7425 22.2712 62.2313 19.7893 62.2313 16.7402C62.2313 13.6912 64.7425 11.2092 67.8274 11.2092C70.9124 11.2092 73.4235 13.6912 73.4235 16.7402C73.4235 19.7893 70.9124 22.2712 67.8274 22.2712Z" fill="#343434"/>
<path fill-rule="evenodd" clip-rule="evenodd" d="M39.3994 11.2092H46.6669V25.5833H49.9929V11.2092H57.1883V7.92188H39.3994V11.2092Z" fill="#343434"/>
<path fill-rule="evenodd" clip-rule="evenodd" d="M93.2556 9.87786C91.7228 8.65605 89.7771 7.92188 87.6595 7.92188C82.7397 7.92188 78.7373 11.8777 78.7373 16.7402V25.5833H82.0634V16.7402C82.0634 13.6912 84.5745 11.2092 87.6595 11.2092C90.7444 11.2092 93.2556 13.6912 93.2556 16.7402V25.5833H96.5816V8.07529H93.2556V9.87786Z" fill="#343434"/>
<path d="M102.611 8.07031H99.2852V25.5783H102.611V8.07031Z" fill="#343434"/>
<path d="M121.996 8.07031H118.67V25.5783H121.996V8.07031Z" fill="#343434"/>
<path fill-rule="evenodd" clip-rule="evenodd" d="M108.574 8.07529H105.248V25.5833H108.574V16.7402C108.574 13.6912 111.085 11.2092 114.17 11.2092V7.92188C112.053 7.92188 110.107 8.65605 108.574 9.87786V8.07529Z" fill="#343434"/>
<path d="M100.943 5.22173C101.858 5.22173 102.6 4.48828 102.6 3.58352C102.6 2.67876 101.858 1.94531 100.943 1.94531C100.027 1.94531 99.2852 2.67876 99.2852 3.58352C99.2852 4.48828 100.027 5.22173 100.943 5.22173Z" fill="#343434"/>
<path d="M120.23 5.22173C121.145 5.22173 121.887 4.48828 121.887 3.58352C121.887 2.67876 121.145 1.94531 120.23 1.94531C119.314 1.94531 118.572 2.67876 118.572 3.58352C118.572 4.48828 119.314 5.22173 120.23 5.22173Z" fill="#343434"/>
</g>
<defs>
<clipPath id="clip0">
<rect width="122" height="30" fill="white"/>
</clipPath>
</defs>
</svg>
